# xmcd
#
# Track frame offsets:
#	150
#	15980
#	28292
#	41247
#	58012
#	69220
#	85355
#	98555
#	112380
#	125725
#	139217
#	154432
#
# Disc length: 2285 seconds
#
# Revision: 3
# Processed by: cddbd v1.4PL0 Copyright (c) Steve Scherf et al.
# Submitted via: audiograbber 1.81.03
#
DISCID=ad08eb0c
DTITLE=Tamra Rosanes - Gentle Fire
DYEAR=1991
DGENRE=Country
TTITLE0=Would You Lay With Me
TTITLE1=Turn On The Light And Love Me Tonight
TTITLE2=One Little Teardrop
TTITLE3=Deportee
TTITLE4=Carry On
TTITLE5=Hopeless Romantic
TTITLE6=No Memories Hanging Round
TTITLE7=Give It To Me
TTITLE8=Precious Memories
TTITLE9=As Long As I Live
TTITLE10=Guest Of Many Faces
TTITLE11=Can't Break A Broken Heart
EXTD=\nRecord number Medley MdCd 6393\n\n
EXTT0=
EXTT1=
EXTT2=
EXTT3=
EXTT4=
EXTT5=
EXTT6=
EXTT7=
EXTT8=
EXTT9=
EXTT10=
EXTT11=
PLAYORDER=
